<svg width="26" height="32" viewBox="0 0 26 32" fill="none" xmlns="http://www.w3.org/2000/svg">
<path d="M16.8152 1.17676V6.83505C16.8152 7.63074 17.6109 8.69167 18.6718 8.69167C19.5235 8.69167 23.5698 8.62094 24.4185 8.69167" stroke="white" stroke-linejoin="round"/>
<path d="M16.8152 1H3.28838C1.87381 1 1.22546 2.29669 1.07811 2.94504C1.01917 11.0199 0.936649 27.5232 1.07811 28.9378C1.21956 30.3524 2.55162 30.8239 3.19996 30.8828C9.32978 30.9713 21.8546 31.095 22.9156 30.8828C23.9765 30.6707 24.4775 29.262 24.5954 28.5842V8.69174L16.8152 1Z" stroke="white" stroke-linejoin="round"/>
<line x1="4.5" y1="17" x2="20.298" y2="17" stroke="white" stroke-linecap="round" stroke-linejoin="round"/>
<line x1="4.5" y1="21.5" x2="20.299" y2="21.5" stroke="white" stroke-linecap="round" stroke-linejoin="round"/>
<line x1="4.5" y1="26" x2="15.8788" y2="26" stroke="white" stroke-linecap="round" stroke-linejoin="round"/>
<g clip-path="url(#clip0)">
<path d="M9.78812 9.61094C9.25841 9.61094 9.0037 9.90625 8.13437 9.90625C7.26505 9.90625 7.01219 9.61094 6.48062 9.61094C5.11111 9.61094 4 10.7221 4 12.0916V12.5641C4 13.0532 4.39683 13.45 4.88594 13.45H11.3828C11.8719 13.45 12.2687 13.0532 12.2687 12.5641V12.0916C12.2687 10.7221 11.1576 9.61094 9.78812 9.61094ZM11.3828 12.5641H4.88594V12.0916C4.88594 11.213 5.60207 10.4969 6.48062 10.4969C6.7501 10.4969 7.18753 10.7922 8.13437 10.7922C9.0886 10.7922 9.51681 10.4969 9.78812 10.4969C10.6667 10.4969 11.3828 11.213 11.3828 12.0916V12.5641ZM8.13437 9.31562C9.60171 9.31562 10.7922 8.12515 10.7922 6.65781C10.7922 5.19048 9.60171 4 8.13437 4C6.66704 4 5.47656 5.19048 5.47656 6.65781C5.47656 8.12515 6.66704 9.31562 8.13437 9.31562ZM8.13437 4.88594C9.11075 4.88594 9.90625 5.68144 9.90625 6.65781C9.90625 7.63419 9.11075 8.42969 8.13437 8.42969C7.158 8.42969 6.3625 7.63419 6.3625 6.65781C6.3625 5.68144 7.158 4.88594 8.13437 4.88594Z" fill="white"/>
</g>
<defs>
<clipPath id="clip0">
<rect width="8.26875" height="9.45" fill="white" transform="translate(4 4)"/>
</clipPath>
</defs>
</svg>
